<svg width="341" height="63" viewBox="0 0 341 63" fill="none" xmlns="http://www.w3.org/2000/svg">
<path d="M59.8015 46.728C60.3562 46.728 60.7828 46.984 61.0815 47.496C61.4228 48.008 61.5935 48.712 61.5935 49.608C61.5935 51.272 61.1882 52.5947 60.3775 53.576C58.3295 56.0507 56.2602 57.9707 54.1695 59.336C52.0788 60.6587 49.6042 61.32 46.7455 61.32C43.9722 61.32 41.6042 60.5733 39.6415 59.08C37.7215 57.5867 35.8868 55.0267 34.1375 51.4C32.7295 48.4987 31.6202 46.3653 30.8095 45C29.9988 43.592 29.1882 42.5893 28.3775 41.992C27.6095 41.3947 26.6495 41.032 25.4975 40.904C25.3268 41.8 24.8362 44.616 24.0255 49.352C23.6842 51.4853 23.4708 52.7867 23.3855 53.256C22.9588 55.8587 22.1055 57.864 20.8255 59.272C19.5455 60.6373 17.6042 61.32 15.0015 61.32C12.1428 61.32 9.60417 60.488 7.3855 58.824C5.2095 57.1173 3.52417 54.7707 2.3295 51.784C1.13483 48.7547 0.5375 45.32 0.5375 41.48C0.5375 34.312 1.77483 28.1253 4.2495 22.92C6.76683 17.7147 10.2655 13.7467 14.7455 11.016C19.2682 8.24267 24.4735 6.856 30.3615 6.856C34.4575 6.856 37.8922 7.47467 40.6655 8.712C43.4388 9.94933 45.4868 11.656 46.8095 13.832C48.1748 16.008 48.8575 18.4613 48.8575 21.192C48.8575 23.5813 48.2815 25.928 47.1295 28.232C46.0202 30.4933 44.3348 32.4987 42.0735 34.248C39.8122 35.9973 37.0602 37.2987 33.8175 38.152C35.8655 38.7067 37.4442 39.6027 38.5535 40.84C39.6628 42.0773 40.7722 43.8907 41.8815 46.28C43.0762 48.84 44.2495 50.7173 45.4015 51.912C46.5962 53.1067 47.9615 53.704 49.4975 53.704C50.8628 53.704 52.1642 53.256 53.4015 52.36C54.6388 51.4213 56.1962 49.8427 58.0735 47.624C58.5855 47.0267 59.1615 46.728 59.8015 46.728ZM16.6655 40.84C15.2148 40.84 14.2122 40.4987 13.6575 39.816C13.1455 39.1333 12.8895 38.3653 12.8895 37.512C12.8895 36.488 13.2095 35.6773 13.8495 35.08C14.5322 34.4827 15.3002 34.184 16.1535 34.184H17.7535C18.4362 30.0027 19.0762 26.3973 19.6735 23.368C20.2282 20.5947 22.0202 19.208 25.0495 19.208C27.4815 19.208 28.6975 20.296 28.6975 22.472C28.6975 22.9413 28.6762 23.304 28.6335 23.56L26.7135 34.184C29.0175 34.056 31.1082 33.5013 32.9855 32.52C34.9055 31.5387 36.4202 30.1733 37.5295 28.424C38.6815 26.6747 39.2575 24.6907 39.2575 22.472C39.2575 19.784 38.3402 17.672 36.5055 16.136C34.6708 14.6 31.9828 13.832 28.4415 13.832C24.2602 13.832 20.5908 14.8773 17.4335 16.968C14.3188 19.016 11.8868 22.088 10.1375 26.184C8.38817 30.2373 7.5135 35.1867 7.5135 41.032C7.5135 43.7627 7.79083 46.1093 8.3455 48.072C8.90017 50.0347 9.58283 51.5067 10.3935 52.488C11.2042 53.4693 11.9722 53.96 12.6975 53.96C13.2522 53.96 13.7002 53.6827 14.0415 53.128C14.4255 52.5733 14.7242 51.6773 14.9375 50.44L16.6655 40.84ZM81.776 46.728C82.3307 46.728 82.7573 46.984 83.056 47.496C83.3973 48.008 83.568 48.712 83.568 49.608C83.568 51.3147 83.1627 52.6373 82.352 53.576C80.7733 55.496 78.5333 57.2667 75.632 58.888C72.7733 60.5093 69.7013 61.32 66.416 61.32C61.936 61.32 58.4587 60.104 55.984 57.672C53.5093 55.24 52.272 51.912 52.272 47.688C52.272 44.744 52.8907 42.0133 54.128 39.496C55.3653 36.936 57.072 34.9093 59.248 33.416C61.4667 31.9227 63.9627 31.176 66.736 31.176C69.2107 31.176 71.1947 31.9227 72.688 33.416C74.1813 34.8667 74.928 36.8507 74.928 39.368C74.928 42.312 73.8613 44.8507 71.728 46.984C69.6373 49.0747 66.0747 50.7387 61.04 51.976C62.1067 53.9387 64.1333 54.92 67.12 54.92C69.04 54.92 71.216 54.2587 73.648 52.936C76.1227 51.5707 78.256 49.8 80.048 47.624C80.56 47.0267 81.136 46.728 81.776 46.728ZM65.648 37.448C64.0693 37.448 62.7253 38.3653 61.616 40.2C60.5493 42.0347 60.016 44.2533 60.016 46.856V46.984C62.5333 46.3867 64.5173 45.4907 65.968 44.296C67.4187 43.1013 68.144 41.7147 68.144 40.136C68.144 39.3253 67.9093 38.6853 67.44 38.216C67.0133 37.704 66.416 37.448 65.648 37.448ZM88.341 62.728C86.1223 62.728 84.4157 62.216 83.221 61.192C82.069 60.168 81.493 59.016 81.493 57.736C81.493 56.6267 81.8983 55.6667 82.709 54.856C83.5197 54.0453 84.7143 53.64 86.293 53.64C86.8477 53.64 87.4877 53.704 88.213 53.832C88.981 53.9173 89.557 53.9813 89.941 54.024C89.8983 52.9147 89.6423 51.8693 89.173 50.888C88.7463 49.9067 88.1917 48.968 87.509 48.072C86.8263 47.1333 86.1863 46.3227 85.589 45.64C84.2663 48.1573 82.9437 50.248 81.621 51.912C80.341 53.576 78.933 55.1547 77.397 56.648C76.629 57.416 75.8183 57.8 74.965 57.8C74.2823 57.8 73.7277 57.5653 73.301 57.096C72.8743 56.584 72.661 55.9653 72.661 55.24C72.661 54.3867 72.9597 53.5973 73.557 52.872L74.389 51.848C76.7357 48.9467 78.5063 46.5573 79.701 44.68C80.4263 43.4427 81.2797 41.8 82.261 39.752C83.2423 37.6613 84.2023 35.5067 85.141 33.288C85.9517 31.4107 87.637 30.472 90.197 30.472C91.3917 30.472 92.2237 30.5787 92.693 30.792C93.1623 31.0053 93.397 31.3467 93.397 31.816C93.397 32.072 93.3117 32.4773 93.141 33.032C92.9703 33.5867 92.7357 34.1413 92.437 34.696C91.669 36.232 91.285 37.5333 91.285 38.6C91.285 39.24 91.4983 39.944 91.925 40.712C92.3943 41.48 93.0983 42.44 94.037 43.592C95.4023 45.384 96.4263 46.92 97.109 48.2C97.8343 49.4373 98.197 50.8027 98.197 52.296C98.197 52.7227 98.1543 53.32 98.069 54.088C100.16 53.2773 102.613 51.1227 105.429 47.624C105.941 47.0267 106.517 46.728 107.157 46.728C107.712 46.728 108.138 46.984 108.437 47.496C108.778 48.008 108.949 48.712 108.949 49.608C108.949 51.2293 108.544 52.552 107.733 53.576C105.6 56.2213 103.552 58.0347 101.589 59.016C99.669 59.9547 97.2797 60.4667 94.421 60.552C92.7143 62.0027 90.6877 62.728 88.341 62.728ZM108.358 61.32C106.438 61.32 104.859 60.4453 103.622 58.696C102.427 56.904 101.829 54.6853 101.829 52.04C101.829 48.84 102.043 45.9173 102.469 43.272C102.896 40.584 103.6 37.7467 104.582 34.76C105.008 33.48 105.605 32.5627 106.373 32.008C107.142 31.4533 108.358 31.176 110.022 31.176C110.96 31.176 111.6 31.3253 111.942 31.624C112.326 31.9227 112.517 32.3707 112.517 32.968C112.517 33.3093 112.283 34.4613 111.814 36.424C111.387 38.0027 111.046 39.432 110.79 40.712C109.936 45.192 109.51 48.1787 109.51 49.672C109.51 50.568 109.616 51.208 109.83 51.592C110.043 51.9333 110.384 52.104 110.854 52.104C111.494 52.104 112.283 51.464 113.222 50.184C114.203 48.904 115.227 46.9627 116.294 44.36C117.403 41.7573 118.47 38.5573 119.493 34.76C119.835 33.48 120.347 32.5627 121.03 32.008C121.755 31.4533 122.822 31.176 124.23 31.176C125.211 31.176 125.894 31.304 126.278 31.56C126.662 31.7733 126.854 32.2 126.854 32.84C126.854 33.9067 126.32 36.8293 125.254 41.608C124.059 47.0693 123.462 50.44 123.462 51.72C123.462 52.5307 123.632 53.1707 123.974 53.64C124.315 54.0667 124.763 54.28 125.318 54.28C126.171 54.28 127.174 53.768 128.326 52.744C129.52 51.6773 131.099 49.9707 133.062 47.624C133.574 47.0267 134.15 46.728 134.79 46.728C135.344 46.728 135.771 46.984 136.069 47.496C136.411 48.008 136.582 48.712 136.582 49.608C136.582 51.3147 136.176 52.6373 135.366 53.576C133.531 55.8373 131.547 57.6933 129.414 59.144C127.323 60.5947 124.934 61.32 122.246 61.32C120.198 61.32 118.683 60.5307 117.701 58.952C116.763 57.3733 116.294 55.1547 116.294 52.296C115.568 55.1973 114.48 57.4373 113.03 59.016C111.579 60.552 110.022 61.32 108.358 61.32ZM134.016 61.32C132.395 61.32 131.243 60.4667 130.56 58.76C129.92 57.0533 129.6 54.3227 129.6 50.568C129.6 45.0213 130.389 39.752 131.968 34.76C132.352 33.5227 132.971 32.6267 133.824 32.072C134.72 31.4747 135.957 31.176 137.536 31.176C138.389 31.176 138.987 31.2827 139.328 31.496C139.669 31.7093 139.84 32.1147 139.84 32.712C139.84 33.3947 139.52 34.9307 138.88 37.32C138.453 39.0267 138.112 40.52 137.856 41.8C137.6 43.0373 137.387 44.5947 137.216 46.472C138.368 43.144 139.733 40.328 141.312 38.024C142.933 35.72 144.576 34.0133 146.24 32.904C147.947 31.752 149.547 31.176 151.04 31.176C152.533 31.176 153.579 31.5173 154.176 32.2C154.816 32.8827 155.136 33.928 155.136 35.336C155.136 36.7013 154.731 39.176 153.92 42.76C153.579 44.296 153.344 45.448 153.216 46.216C155.349 40.968 157.717 37.1493 160.32 34.76C162.923 32.3707 165.355 31.176 167.616 31.176C170.389 31.176 171.776 32.5627 171.776 35.336C171.776 37 171.307 40.008 170.368 44.36C169.557 48.072 169.152 50.5253 169.152 51.72C169.152 53.4267 169.771 54.28 171.008 54.28C171.861 54.28 172.864 53.768 174.016 52.744C175.211 51.6773 176.789 49.9707 178.752 47.624C179.264 47.0267 179.84 46.728 180.48 46.728C181.035 46.728 181.461 46.984 181.76 47.496C182.101 48.008 182.272 48.712 182.272 49.608C182.272 51.3147 181.867 52.6373 181.056 53.576C179.221 55.8373 177.237 57.6933 175.104 59.144C173.013 60.5947 170.624 61.32 167.936 61.32C165.76 61.32 164.117 60.7013 163.008 59.464C161.899 58.184 161.344 56.3493 161.344 53.96C161.344 52.7653 161.643 50.632 162.24 47.56C162.795 44.872 163.072 43.016 163.072 41.992C163.072 41.3093 162.837 40.968 162.368 40.968C161.813 40.968 161.024 41.6933 160 43.144C158.976 44.552 157.952 46.4293 156.928 48.776C155.904 51.1227 155.072 53.5973 154.432 56.2C153.963 58.248 153.408 59.6133 152.768 60.296C152.171 60.9787 151.189 61.32 149.824 61.32C148.416 61.32 147.349 60.6587 146.624 59.336C145.941 57.9707 145.6 56.328 145.6 54.408C145.6 52.7867 145.813 50.44 146.24 47.368C146.581 44.6373 146.752 42.8453 146.752 41.992C146.752 41.3093 146.517 40.968 146.048 40.968C145.408 40.968 144.597 41.736 143.616 43.272C142.635 44.808 141.675 46.7707 140.736 49.16C139.84 51.5493 139.115 53.896 138.56 56.2C138.091 58.2053 137.536 59.5707 136.896 60.296C136.299 60.9787 135.339 61.32 134.016 61.32ZM198.089 48.648C198.644 48.648 199.07 48.904 199.369 49.416C199.71 49.928 199.881 50.632 199.881 51.528C199.881 53.064 199.518 54.3867 198.793 55.496C197.598 57.3307 196.02 58.76 194.057 59.784C192.137 60.808 189.833 61.32 187.145 61.32C183.049 61.32 179.87 60.104 177.609 57.672C175.348 55.1973 174.217 51.8693 174.217 47.688C174.217 44.744 174.836 42.0133 176.073 39.496C177.31 36.936 179.017 34.9093 181.193 33.416C183.412 31.9227 185.908 31.176 188.681 31.176C191.156 31.176 193.14 31.9227 194.633 33.416C196.126 34.8667 196.873 36.8507 196.873 39.368C196.873 42.312 195.806 44.8507 193.673 46.984C191.582 49.0747 187.998 50.7387 182.921 51.976C183.945 53.9387 185.673 54.92 188.105 54.92C189.854 54.92 191.284 54.5147 192.393 53.704C193.545 52.8933 194.868 51.528 196.361 49.608C196.873 48.968 197.449 48.648 198.089 48.648ZM187.593 37.448C186.014 37.448 184.67 38.3653 183.561 40.2C182.494 42.0347 181.961 44.2533 181.961 46.856V46.984C184.478 46.3867 186.462 45.4907 187.913 44.296C189.364 43.1013 190.089 41.7147 190.089 40.136C190.089 39.3253 189.854 38.6853 189.385 38.216C188.958 37.704 188.361 37.448 187.593 37.448Z" fill="#41DE7C"/>
<path d="M225.147 61.32C220.07 61.32 215.654 60.4027 211.899 58.568C208.144 56.6907 205.264 54.0453 203.259 50.632C201.254 47.2187 200.251 43.2507 200.251 38.728C200.251 32.456 201.424 26.888 203.771 22.024C206.16 17.16 209.382 13.4053 213.435 10.76C217.488 8.072 221.99 6.728 226.939 6.728C231.547 6.728 235.046 7.92266 237.435 10.312C239.824 12.6587 241.019 15.7733 241.019 19.656C241.019 22.2587 240.55 24.3493 239.611 25.928C238.715 27.5067 237.414 28.296 235.707 28.296C234.512 28.296 233.574 28.0187 232.891 27.464C232.208 26.9093 231.867 26.0987 231.867 25.032C231.867 24.648 231.952 23.944 232.123 22.92C232.379 21.64 232.507 20.616 232.507 19.848C232.507 15.9653 230.438 14.024 226.299 14.024C223.483 14.024 220.795 14.9413 218.235 16.776C215.675 18.6107 213.606 21.32 212.027 24.904C210.448 28.4453 209.659 32.6693 209.659 37.576C209.659 42.696 211.088 46.664 213.947 49.48C216.806 52.2533 221.03 53.64 226.619 53.64C229.392 53.64 232.187 53.2987 235.003 52.616C237.862 51.8907 241.019 50.8027 244.475 49.352C245.115 49.096 245.648 48.968 246.075 48.968C246.758 48.968 247.27 49.224 247.611 49.736C247.952 50.248 248.123 50.9093 248.123 51.72C248.123 54.3227 246.715 56.2427 243.899 57.48C240.87 58.8027 237.712 59.784 234.427 60.424C231.184 61.0213 228.091 61.32 225.147 61.32ZM265.438 46.728C265.993 46.728 266.419 46.984 266.718 47.496C267.059 48.008 267.23 48.712 267.23 49.608C267.23 51.3147 266.825 52.6373 266.014 53.576C264.179 55.8373 262.174 57.6933 259.998 59.144C257.865 60.5947 255.433 61.32 252.702 61.32C248.947 61.32 246.153 59.6133 244.318 56.2C242.526 52.7867 241.63 48.3707 241.63 42.952C241.63 37.7467 242.291 31.816 243.614 25.16C244.979 18.504 246.963 12.7867 249.566 8.008C252.211 3.22933 255.347 0.839996 258.974 0.839996C261.022 0.839996 262.622 1.8 263.774 3.72C264.969 5.59733 265.566 8.30667 265.566 11.848C265.566 16.9253 264.158 22.8133 261.342 29.512C258.526 36.2107 254.707 42.8453 249.886 49.416C250.185 51.1653 250.675 52.424 251.358 53.192C252.041 53.9173 252.937 54.28 254.046 54.28C255.795 54.28 257.331 53.7893 258.654 52.808C259.977 51.784 261.662 50.056 263.71 47.624C264.222 47.0267 264.798 46.728 265.438 46.728ZM257.566 7.176C256.585 7.176 255.475 8.94667 254.238 12.488C253.001 16.0293 251.913 20.424 250.974 25.672C250.035 30.92 249.523 35.9547 249.438 40.776C252.467 35.784 254.878 30.792 256.67 25.8C258.462 20.7653 259.358 16.1787 259.358 12.04C259.358 8.79733 258.761 7.176 257.566 7.176ZM288.681 46.728C289.236 46.728 289.662 46.984 289.961 47.496C290.302 48.008 290.473 48.712 290.473 49.608C290.473 51.3147 290.068 52.6373 289.257 53.576C287.678 55.496 285.438 57.2667 282.537 58.888C279.678 60.5093 276.606 61.32 273.321 61.32C268.841 61.32 265.364 60.104 262.889 57.672C260.414 55.24 259.177 51.912 259.177 47.688C259.177 44.744 259.796 42.0133 261.033 39.496C262.27 36.936 263.977 34.9093 266.153 33.416C268.372 31.9227 270.868 31.176 273.641 31.176C276.116 31.176 278.1 31.9227 279.593 33.416C281.086 34.8667 281.833 36.8507 281.833 39.368C281.833 42.312 280.766 44.8507 278.633 46.984C276.542 49.0747 272.98 50.7387 267.945 51.976C269.012 53.9387 271.038 54.92 274.025 54.92C275.945 54.92 278.121 54.2587 280.553 52.936C283.028 51.5707 285.161 49.8 286.953 47.624C287.465 47.0267 288.041 46.728 288.681 46.728ZM272.553 37.448C270.974 37.448 269.63 38.3653 268.521 40.2C267.454 42.0347 266.921 44.2533 266.921 46.856V46.984C269.438 46.3867 271.422 45.4907 272.873 44.296C274.324 43.1013 275.049 41.7147 275.049 40.136C275.049 39.3253 274.814 38.6853 274.345 38.216C273.918 37.704 273.321 37.448 272.553 37.448ZM290.901 61.32C288.256 61.32 286.144 60.36 284.565 58.44C282.987 56.52 282.197 54.0027 282.197 50.888C282.197 47.4747 282.987 44.2533 284.565 41.224C286.144 38.152 288.235 35.6987 290.837 33.864C293.483 31.9867 296.277 31.048 299.221 31.048C300.16 31.048 300.779 31.24 301.077 31.624C301.419 31.9653 301.696 32.6053 301.909 33.544C302.805 33.3733 303.744 33.288 304.725 33.288C306.816 33.288 307.861 34.0347 307.861 35.528C307.861 36.424 307.541 38.5573 306.901 41.928C305.92 46.8347 305.429 50.248 305.429 52.168C305.429 52.808 305.579 53.32 305.877 53.704C306.219 54.088 306.645 54.28 307.157 54.28C307.968 54.28 308.949 53.768 310.101 52.744C311.253 51.6773 312.811 49.9707 314.773 47.624C315.285 47.0267 315.861 46.728 316.501 46.728C317.056 46.728 317.483 46.984 317.781 47.496C318.123 48.008 318.293 48.712 318.293 49.608C318.293 51.3147 317.888 52.6373 317.077 53.576C315.328 55.752 313.472 57.5867 311.509 59.08C309.547 60.5733 307.648 61.32 305.813 61.32C304.405 61.32 303.104 60.8507 301.909 59.912C300.757 58.9307 299.883 57.608 299.285 55.944C297.067 59.528 294.272 61.32 290.901 61.32ZM293.205 54.856C294.144 54.856 295.04 54.3013 295.893 53.192C296.747 52.0827 297.365 50.6107 297.749 48.776L300.117 37C298.325 37.0427 296.661 37.7253 295.125 39.048C293.632 40.328 292.437 42.0347 291.541 44.168C290.645 46.3013 290.197 48.5627 290.197 50.952C290.197 52.2747 290.453 53.256 290.965 53.896C291.52 54.536 292.267 54.856 293.205 54.856ZM337.028 39.944C337.967 39.944 338.756 40.2853 339.396 40.968C340.079 41.608 340.42 42.4187 340.42 43.4C340.42 43.9547 340.292 44.552 340.036 45.192C339.353 46.7707 338.393 48.0933 337.156 49.16C335.919 50.2267 334.553 50.76 333.06 50.76C331.865 50.76 330.841 50.3333 329.988 49.48C329.177 48.6267 328.772 47.4747 328.772 46.024C328.772 45.2133 328.815 44.3387 328.9 43.4C328.985 42.7173 329.028 42.248 329.028 41.992C329.028 41.6507 328.943 41.3947 328.772 41.224C328.644 41.0533 328.473 40.968 328.26 40.968C327.663 40.968 326.852 41.6933 325.828 43.144C324.804 44.552 323.78 46.4293 322.756 48.776C321.732 51.1227 320.9 53.5973 320.26 56.2C319.791 58.248 319.257 59.6133 318.66 60.296C318.063 60.9787 317.081 61.32 315.716 61.32C314.095 61.32 312.943 60.4667 312.26 58.76C311.62 57.0533 311.3 54.3227 311.3 50.568C311.3 45.0213 312.089 39.752 313.668 34.76C314.052 33.5227 314.671 32.6267 315.524 32.072C316.42 31.4747 317.657 31.176 319.236 31.176C320.089 31.176 320.687 31.2827 321.028 31.496C321.369 31.7093 321.54 32.1147 321.54 32.712C321.54 33.3947 321.22 34.9307 320.58 37.32C320.153 39.0267 319.812 40.52 319.556 41.8C319.3 43.08 319.087 44.6587 318.916 46.536C320.324 42.8667 321.903 39.88 323.652 37.576C325.401 35.272 327.108 33.6293 328.772 32.648C330.436 31.6667 331.951 31.176 333.316 31.176C334.553 31.176 335.492 31.5387 336.132 32.264C336.815 32.9467 337.156 33.9707 337.156 35.336C337.156 36.1467 336.921 37.6827 336.452 39.944H337.028Z" fill="#5BE0CA"/>
</svg>
